<?xml version="1.0" encoding="iso-8859-1"?>
<!-- Generator: Adobe Illustrator 19.0.0, SVG Export Plug-In . SVG Version: 6.00 Build 0)  -->
<svg version="1.1" id="Capa_1" xmlns="http://www.w3.org/2000/svg" xmlns:xlink="http://www.w3.org/1999/xlink" x="0px" y="0px"
	 viewBox="0 0 512.002 512.002" style="enable-background:new 0 0 512.002 512.002;" xml:space="preserve">
<g>
	<g>
		<path d="M409.627,332.673V212.029c0-66.866-45.055-123.407-106.402-140.858V47.225C303.225,21.185,282.04,0,256,0
			s-47.225,21.185-47.225,47.225v23.947c-61.346,17.45-106.403,73.991-106.403,140.857v120.644
			c-27.386,3.05-48.754,26.329-48.754,54.514v4.335c0,30.253,24.612,54.865,54.864,54.865h87.089v5.185
			c0,33.321,27.109,60.43,60.43,60.43s60.43-27.109,60.43-60.43v-5.185h87.088c30.253,0,54.865-24.612,54.865-54.865v-4.335
			C458.381,359.002,437.013,335.722,409.627,332.673z M239.844,47.225c0-8.909,7.248-16.157,16.157-16.157
			c8.909,0,16.157,7.248,16.157,16.157v18.671c-2.96-0.179-5.941-0.282-8.945-0.282h-14.425c-3.004,0-5.985,0.102-8.944,0.281
			V47.225z M133.44,212.029c0-63.603,51.744-115.347,115.347-115.347h14.425c63.603,0,115.347,51.744,115.347,115.347v120.295
			H133.44V212.029z M256,480.933c-16.19,0-29.362-13.172-29.362-29.362v-5.185h58.723v5.185h0.001
			C285.362,467.762,272.19,480.933,256,480.933z M427.315,391.521h-0.001c0,13.121-10.676,23.797-23.797,23.797H108.482
			c-13.121,0-23.796-10.676-23.796-23.797v-4.335c0-13.121,10.675-23.796,23.796-23.796h9.425h276.186h9.425
			c13.121,0,23.797,10.675,23.797,23.796V391.521z"/>
	</g>
</g>
<g>
</g>
<g>
</g>
<g>
</g>
<g>
</g>
<g>
</g>
<g>
</g>
<g>
</g>
<g>
</g>
<g>
</g>
<g>
</g>
<g>
</g>
<g>
</g>
<g>
</g>
<g>
</g>
<g>
</g>
</svg>
