<?xml version="1.0" encoding="iso-8859-1"?>
<!-- Generator: Adobe Illustrator 18.1.1, SVG Export Plug-In . SVG Version: 6.00 Build 0)  -->
<svg version="1.1" id="Capa_1" xmlns="http://www.w3.org/2000/svg" xmlns:xlink="http://www.w3.org/1999/xlink" x="0px" y="0px"
	 viewBox="0 0 40.657 40.657" style="enable-background:new 0 0 40.657 40.657;" xml:space="preserve">
<g>
	<g>
		<path style="fill:#030104;" d="M38.991,0H1.668C0.748,0,0,0.748,0,1.668v37.321c0,0.92,0.748,1.668,1.668,1.668h37.321
			c0.92,0,1.668-0.748,1.668-1.668V1.668C40.657,0.748,39.909,0,38.991,0z M38.741,38.739H1.918V1.918h36.823V38.739z"/>
		<path style="fill:#030104;" d="M5.425,36.609h29.808c0.918,0,1.666-0.748,1.666-1.668V9.764c0-0.92-0.748-1.668-1.666-1.668H5.425
			c-0.919,0-1.667,0.748-1.667,1.668v25.179C3.758,35.861,4.506,36.609,5.425,36.609z M34.983,10.013v11.469L33.98,18.56
			c-0.161-0.471-0.517-0.783-0.95-0.838c-0.439-0.059-0.854,0.161-1.129,0.588l-4.479,6.991l-4.41-14.629
			c-0.1-0.33-0.262-0.534-0.43-0.659C22.582,10.013,34.983,10.013,34.983,10.013z M5.677,10.014h15.769
			c-0.173,0.132-0.338,0.35-0.427,0.715l-4.811,19.849l-5.296-13.231c-0.177-0.447-0.525-0.737-0.955-0.798
			c-0.051-0.008-0.101-0.011-0.152-0.011c-0.371,0-0.73,0.186-0.983,0.512l-3.145,4.046C5.677,21.096,5.677,10.014,5.677,10.014z
			 M5.675,23.913l3.964-5.098l5.739,14.348c0.286,0.717,0.839,0.772,1.002,0.772l0.064-0.004c0.174-0.011,0.756-0.108,0.953-0.912
			l4.7-19.388l4.032,13.382c0.227,0.742,0.814,0.854,0.923,0.867c0.213,0.033,0.749,0.035,1.144-0.583l4.527-7.065l2.216,6.465
			c0.013,0.033,0.026,0.062,0.042,0.088v7.906H5.675V23.913z"/>
		<path style="fill:#030104;" d="M14.971,18.625c1.792,0,3.25-1.458,3.25-3.25s-1.458-3.25-3.25-3.25s-3.25,1.458-3.25,3.25
			S13.179,18.625,14.971,18.625z M14.971,13.875c0.827,0,1.5,0.673,1.5,1.5s-0.673,1.5-1.5,1.5s-1.5-0.673-1.5-1.5
			S14.144,13.875,14.971,13.875z"/>
	</g>
</g>
<g>
</g>
<g>
</g>
<g>
</g>
<g>
</g>
<g>
</g>
<g>
</g>
<g>
</g>
<g>
</g>
<g>
</g>
<g>
</g>
<g>
</g>
<g>
</g>
<g>
</g>
<g>
</g>
<g>
</g>
</svg>
