<?xml version="1.0" encoding="iso-8859-1"?>
<!-- Generator: Adobe Illustrator 19.0.0, SVG Export Plug-In . SVG Version: 6.00 Build 0)  -->
<svg version="1.1" id="Capa_1" xmlns="http://www.w3.org/2000/svg" xmlns:xlink="http://www.w3.org/1999/xlink" x="0px" y="0px"
	 viewBox="0 0 480 480" style="enable-background:new 0 0 480 480;" xml:space="preserve">
<g>
	<g>
		<path d="M240,0C107.452,0,0,107.452,0,240s107.452,240,240,240s240-107.452,240-240C479.85,107.514,372.486,0.15,240,0z M240,464
			C116.288,464,16,363.712,16,240S116.288,16,240,16s224,100.288,224,224C463.861,363.654,363.654,463.861,240,464z"/>
	</g>
</g>
<g>
	<g>
		<path d="M240,32c-44.183,0-80,35.817-80,80c0.051,44.162,35.838,79.949,80,80c44.183,0,80-35.817,80-80S284.183,32,240,32z
			 M264,171.288c-15.383,6.283-32.617,6.283-48,0v-26.472c0.008-9.282,7.53-16.806,16.813-16.816h14.375
			c9.282,0.01,16.804,7.534,16.812,16.816V171.288z M224,96c0-8.837,7.163-16,16-16s16,7.163,16,16s-7.163,16-16,16
			C231.168,111.99,224.01,104.832,224,96z M280,161.88v-17.064c-0.032-11.472-6.069-22.089-15.911-27.982
			c11.634-13.304,10.28-33.521-3.024-45.155c-13.304-11.634-33.521-10.28-45.155,3.024c-10.549,12.063-10.549,30.068,0,42.131
			c-9.842,5.893-15.879,16.511-15.911,27.982v17.064c-27.578-22.062-32.049-62.303-9.987-89.88C202.16,56.816,220.555,47.984,240,48
			c35.317-0.03,63.97,28.576,64,63.892C304.016,131.337,295.184,149.733,280,161.88z"/>
	</g>
</g>
<g>
	<g>
		<path d="M240,288c-44.183,0-80,35.817-80,80c0,44.183,35.817,80,80,80s80-35.817,80-80C319.949,323.838,284.162,288.051,240,288z
			 M264,427.288c-15.383,6.283-32.617,6.283-48,0v-26.472c0.008-9.282,7.53-16.806,16.813-16.816h14.375
			c9.283,0.01,16.804,7.534,16.812,16.816V427.288z M224,352c0-8.837,7.163-16,16-16s16,7.163,16,16s-7.163,16-16,16
			C231.168,367.99,224.01,360.832,224,352z M289.96,407.92c-2.943,3.676-6.284,7.017-9.96,9.96v-17.064
			c-0.032-11.472-6.069-22.089-15.911-27.982c11.634-13.304,10.28-33.521-3.024-45.155c-13.304-11.634-33.521-10.28-45.155,3.024
			c-10.549,12.063-10.549,30.068,0,42.131c-9.842,5.893-15.879,16.511-15.911,27.982v17.064
			c-27.592-22.091-32.051-62.368-9.96-89.96c22.091-27.592,62.368-32.051,89.96-9.96C307.592,340.052,312.051,380.328,289.96,407.92
			z"/>
	</g>
</g>
<g>
	<g>
		<path d="M368,160c-44.162,0.051-79.949,35.838-80,80c0,44.183,35.817,80,80,80c44.183,0,80-35.817,80-80
			C448,195.817,412.183,160,368,160z M392,299.288c-15.383,6.283-32.617,6.283-48,0v-26.472c0.008-9.282,7.53-16.806,16.813-16.816
			h14.375c9.283,0.01,16.804,7.534,16.813,16.816V299.288z M352,224c0-8.837,7.163-16,16-16s16,7.163,16,16s-7.163,16-16,16
			C359.168,239.99,352.01,232.832,352,224z M408,289.88v-17.064c-0.032-11.472-6.069-22.089-15.911-27.982
			c11.634-13.304,10.28-33.521-3.024-45.155c-13.304-11.634-33.521-10.28-45.155,3.024c-10.549,12.063-10.549,30.068,0,42.131
			c-9.842,5.893-15.879,16.511-15.911,27.982v17.064c-27.562-22.106-31.986-62.37-9.88-89.932
			c22.106-27.562,62.37-31.986,89.932-9.88C423.198,202.216,432.008,220.584,432,240C431.994,259.41,423.163,277.763,408,289.88z"/>
	</g>
</g>
<g>
	<g>
		<path d="M112,160c-44.183,0-80,35.817-80,80c0,44.183,35.817,80,80,80c44.162-0.051,79.949-35.838,80-80
			C192,195.817,156.183,160,112,160z M136,299.288c-15.383,6.283-32.617,6.283-48,0v-26.472c0.008-9.282,7.53-16.806,16.813-16.816
			h14.375c9.283,0.01,16.804,7.534,16.813,16.816V299.288z M96,224c0-8.837,7.163-16,16-16s16,7.163,16,16s-7.163,16-16,16
			C103.168,239.99,96.01,232.832,96,224z M161.96,279.92c-2.943,3.676-6.284,7.017-9.96,9.96v-17.064
			c-0.032-11.472-6.069-22.089-15.911-27.982c11.634-13.304,10.28-33.521-3.024-45.155c-13.304-11.634-33.521-10.28-45.155,3.024
			c-10.549,12.063-10.549,30.068,0,42.131c-9.842,5.893-15.879,16.511-15.911,27.982v17.064
			c-27.592-22.091-32.051-62.368-9.96-89.96c22.091-27.592,62.368-32.051,89.96-9.96C179.592,212.052,184.051,252.328,161.96,279.92
			z"/>
	</g>
</g>
<g>
</g>
<g>
</g>
<g>
</g>
<g>
</g>
<g>
</g>
<g>
</g>
<g>
</g>
<g>
</g>
<g>
</g>
<g>
</g>
<g>
</g>
<g>
</g>
<g>
</g>
<g>
</g>
<g>
</g>
</svg>
